<?xml version="1.0" encoding="utf-8"?>
<!-- Generator: Adobe Illustrator 26.0.1, SVG Export Plug-In . SVG Version: 6.00 Build 0)  -->
<svg version="1.1" id="Camada_1" xmlns="http://www.w3.org/2000/svg" xmlns:xlink="http://www.w3.org/1999/xlink" x="0px" y="0px"
	 viewBox="0 0 400 400" enable-background="new 0 0 400 400" xml:space="preserve">
<g>
	<path fill="#FFFFFF" d="M151.07,208.46c-5.51,16.03-7.55,31.08-7.35,46.44c0.02,1.45,1.48,3.15,2.69,4.29
		c23.25,22.03,47.93,42.33,74.58,60.14c23.75,15.87,48.53,29.82,75.88,38.63c13.14,4.23,26.53,6.9,40.5,5.85
		c18.37-1.39,31.31-11.94,35.62-29.79c3.36-13.91,1.02-27.58-2.65-41.05c-6.27-22.97-17.11-43.9-29.18-64.26
		c-1.31-2.21-2.84-4.43-5.74-2.82c-2.92,1.63-1.63,4.09-0.63,6.4c3.12,7.17,6.43,14.27,9.19,21.57c3.97,10.49,6.54,21.33,6.6,32.65
		c0.11,17.76-10.8,28.98-28.49,28.53c-6.86-0.18-13.84-1.14-20.51-2.79c-21.67-5.35-41.08-15.87-59.82-27.63
		c-32.04-20.11-60.64-44.44-87-71.47C153.62,211.96,152.71,210.55,151.07,208.46z M45.66,136.58c7.98-11.94,15.51-23.7,23.62-35.04
		c2.56-3.57,3.04-6.24,1.4-10.27c-4.8-11.83-7.97-24.09-7.48-37.03c0.56-14.77,8.67-24.14,23.31-25.9
		c5.52-0.66,11.29-0.29,16.83,0.48c13.45,1.87,26.07,6.64,38.13,12.72c4.49,2.26,7.58,0.46,11.58-1.78
		c-1.41-1.07-2.34-1.92-3.4-2.56c-15.31-9.16-31.05-17.49-47.78-23.81C86.56,7.61,70.91,3.31,54.3,3.87
		C35.37,4.5,21.33,14.49,16.42,31c-2.68,9.02-2.68,18.26-1.39,27.48c2.64,18.86,9.38,36.43,17.64,53.44
		C36.8,120.42,41.47,128.66,45.66,136.58z M281.79,222.8c0-0.04,0.01-0.09,0.01-0.14c3.59,0.22,7.18,0.66,10.76,0.56
		c2.16-0.06,4.29-0.95,6.44-1.47c-0.64-2.08-0.87-4.43-2-6.2c-3.74-5.83-7.94-11.36-11.65-17.2c-0.93-1.46-1.29-3.83-0.86-5.51
		c1.81-7.07,4.08-14.02,6.08-21.05c1.61-5.66-0.27-7.65-5.87-6.1c-7.16,1.98-14.23,4.29-21.42,6.16c-1.58,0.41-3.82,0.08-5.19-0.8
		c-5.94-3.8-11.6-8.04-17.52-11.87c-1.69-1.09-4.4-2.32-5.78-1.67c-1.29,0.61-1.94,3.63-1.97,5.61c-0.11,7.06,0.06,14.12,0.35,21.17
		c0.1,2.45-0.55,4-2.62,5.42c-6.14,4.2-12.2,8.53-18.1,13.06c-1.57,1.2-3.55,3.47-3.33,4.95c0.22,1.53,2.7,3.13,4.53,3.94
		c6.1,2.68,12.3,5.14,18.56,7.42c2.66,0.97,4.1,2.55,5.07,5.16c2.35,6.37,4.86,12.69,7.6,18.9c0.74,1.67,2.37,3.7,3.9,4.01
		c1.17,0.23,3.21-1.73,4.21-3.17c4.38-6.33,8.59-12.77,12.7-19.28c1.25-1.97,2.55-2.83,4.95-2.56
		C274.34,222.56,278.07,222.6,281.79,222.8z"/>
	<path fill="#FFFFFF" d="M202.63,398.4c-6.93-1.14-13.94-1.96-20.79-3.47c-31.09-6.84-57.96-21.84-81.32-43.18
		c-23.77-21.71-41.36-47.62-50.85-78.57c-7.74-25.27-9.55-51.09-6-77.31c3.82-28.27,13.79-54.17,30.43-77.28
		c28.32-39.32,66.13-64.2,114.01-73.14c76.37-14.25,151.83,21.84,188.44,90.28c4.38,8.19,7.65,16.97,11.44,25.48
		c-0.34,0.22-0.68,0.45-1.03,0.67c-2.18-2.04-4.36-4.08-6.53-6.12c-15.68-14.68-32.97-26.95-52.84-35.37
		c-27.83-11.78-56.45-13.67-85.56-6.02c-23.48,6.17-44.94,16.64-63.79,32.12c-23.55,19.34-38.82,43.9-45.17,73.71
		c-6.43,30.17-4.68,59.99,5.55,89.16c9.93,28.32,28.24,50.04,53.04,66.52c11.59,7.7,24,13.81,37,18.73
		c1.17,0.44,2.31,0.97,4.41,1.86c-4.63,0.75-8.28,1.34-11.94,1.93C214.96,398.4,208.8,398.4,202.63,398.4z"/>
	<path fill="#FFFFFF" d="M151.07,208.46c1.64,2.09,2.55,3.5,3.7,4.68c26.36,27.04,54.97,51.37,87,71.47
		c18.74,11.76,38.15,22.28,59.82,27.63c6.67,1.65,13.64,2.62,20.51,2.79c17.69,0.45,28.59-10.77,28.49-28.53
		c-0.07-11.32-2.63-22.16-6.6-32.65c-2.77-7.3-6.07-14.41-9.19-21.57c-1.01-2.31-2.3-4.77,0.63-6.4c2.89-1.61,4.43,0.61,5.74,2.82
		c12.07,20.36,22.91,41.29,29.18,64.26c3.68,13.47,6.01,27.14,2.65,41.05c-4.31,17.85-17.25,28.4-35.62,29.79
		c-13.97,1.05-27.37-1.62-40.5-5.85c-27.35-8.81-52.12-22.76-75.88-38.63c-26.65-17.81-51.32-38.11-74.58-60.14
		c-1.21-1.14-2.67-2.84-2.69-4.29C143.52,239.54,145.56,224.49,151.07,208.46z"/>
	<path fill="#FFFFFF" d="M45.66,136.58c-4.19-7.92-8.86-16.16-12.99-24.66c-8.26-17.01-15-34.58-17.64-53.44
		c-1.29-9.21-1.3-18.45,1.39-27.48C21.33,14.49,35.37,4.5,54.3,3.87c16.61-0.55,32.26,3.75,47.58,9.53
		c16.72,6.32,32.46,14.64,47.78,23.81c1.06,0.63,1.99,1.49,3.4,2.56c-4,2.24-7.09,4.04-11.58,1.78
		c-12.06-6.08-24.67-10.85-38.13-12.72c-5.54-0.77-11.31-1.14-16.83-0.48c-14.64,1.76-22.76,11.13-23.31,25.9
		c-0.49,12.94,2.68,25.2,7.48,37.03c1.63,4.02,1.15,6.69-1.4,10.27C61.17,112.87,53.65,124.63,45.66,136.58z"/>
	<path fill="#FFFFFF" d="M281.79,222.8c-3.72-0.2-7.45-0.24-11.14-0.65c-2.4-0.27-3.71,0.59-4.95,2.56
		c-4.11,6.51-8.32,12.95-12.7,19.28c-1,1.44-3.04,3.41-4.21,3.17c-1.53-0.31-3.17-2.34-3.9-4.01c-2.74-6.21-5.25-12.53-7.6-18.9
		c-0.97-2.61-2.41-4.19-5.07-5.16c-6.26-2.28-12.46-4.74-18.56-7.42c-1.83-0.8-4.31-2.41-4.53-3.94c-0.22-1.48,1.76-3.74,3.33-4.95
		c5.9-4.53,11.96-8.86,18.1-13.06c2.07-1.42,2.72-2.97,2.62-5.42c-0.29-7.05-0.46-14.12-0.35-21.17c0.03-1.97,0.68-5,1.97-5.61
		c1.38-0.65,4.09,0.57,5.78,1.67c5.92,3.83,11.58,8.07,17.52,11.87c1.37,0.88,3.61,1.21,5.19,0.8c7.19-1.87,14.26-4.18,21.42-6.16
		c5.6-1.55,7.48,0.44,5.87,6.1c-2,7.02-4.26,13.98-6.08,21.05c-0.43,1.68-0.07,4.05,0.86,5.51c3.71,5.84,7.91,11.38,11.65,17.2
		c1.13,1.77,1.36,4.12,2,6.2c-2.15,0.52-4.28,1.41-6.44,1.47c-3.58,0.1-7.17-0.35-10.76-0.56
		C281.79,222.71,281.79,222.76,281.79,222.8z"/>
</g>
</svg>
