<?xml version="1.0" encoding="utf-8"?>
<!-- Generator: Adobe Illustrator 26.0.1, SVG Export Plug-In . SVG Version: 6.00 Build 0)  -->
<svg version="1.1" id="Camada_1" xmlns="http://www.w3.org/2000/svg" xmlns:xlink="http://www.w3.org/1999/xlink" x="0px" y="0px"
	 viewBox="0 0 24 24" enable-background="new 0 0 24 24" xml:space="preserve">
<rect x="-0.4" y="-0.3" fill="#060C0F" width="24.8" height="24.6"/>
<g>
	<path fill="#FFFFFF" d="M9.5,12.4c-0.3,0.8-0.4,1.6-0.4,2.3c0,0.1,0.1,0.2,0.1,0.2c1.2,1.1,2.4,2.1,3.8,3c1.2,0.8,2.5,1.5,3.8,2
		c0.7,0.2,1.3,0.3,2,0.3c0.9-0.1,1.6-0.6,1.8-1.5c0.2-0.7,0-1.4-0.1-2.1c-0.3-1.2-0.9-2.2-1.5-3.3c-0.1-0.1-0.1-0.2-0.3-0.1
		s-0.1,0.2,0,0.3c0.2,0.4,0.3,0.7,0.5,1.1c0.2,0.5,0.3,1.1,0.3,1.7c0,0.9-0.5,1.5-1.4,1.4c-0.3,0-0.7-0.1-1-0.1
		c-1.1-0.3-2.1-0.8-3-1.4c-1.6-1-3.1-2.2-4.4-3.6C9.6,12.6,9.6,12.5,9.5,12.4z M4.1,8.7C4.5,8.1,4.9,7.5,5.3,7
		c0.1-0.2,0.1-0.3,0.1-0.5C5.2,5.8,5,5.2,5,4.6c0-0.7,0.4-1.2,1.2-1.3c0.3,0,0.6,0,0.8,0C7.7,3.4,8.4,3.6,9,3.9
		c0.2,0.1,0.4,0,0.6-0.1c-0.1,0-0.1-0.1-0.2-0.1C8.6,3.2,7.8,2.8,7,2.5C6.2,2.2,5.4,2,4.6,2c-1,0-1.7,0.5-1.9,1.4
		C2.5,3.8,2.5,4.3,2.6,4.8c0.1,1,0.5,1.8,0.9,2.7C3.7,7.9,3.9,8.3,4.1,8.7z M16.1,13.1C16.1,13.1,16.1,13.1,16.1,13.1
		c0.2,0,0.4,0,0.5,0c0.1,0,0.2,0,0.3-0.1c0-0.1,0-0.2-0.1-0.3c-0.2-0.3-0.4-0.6-0.6-0.9c0-0.1-0.1-0.2,0-0.3
		c0.1-0.4,0.2-0.7,0.3-1.1c0.1-0.3,0-0.4-0.3-0.3c-0.4,0.1-0.7,0.2-1.1,0.3c-0.1,0-0.2,0-0.3,0c-0.3-0.2-0.6-0.4-0.9-0.6
		c-0.1-0.1-0.2-0.1-0.3-0.1s-0.1,0.2-0.1,0.3c0,0.4,0,0.7,0,1.1c0,0.1,0,0.2-0.1,0.3c-0.3,0.2-0.6,0.4-0.9,0.7
		c-0.1,0.1-0.2,0.2-0.2,0.2c0,0.1,0.1,0.2,0.2,0.2c0.3,0.1,0.6,0.3,0.9,0.4c0.1,0,0.2,0.1,0.3,0.3c0.1,0.3,0.2,0.6,0.4,1
		c0,0.1,0.1,0.2,0.2,0.2c0.1,0,0.2-0.1,0.2-0.2c0.2-0.3,0.4-0.6,0.6-1c0.1-0.1,0.1-0.1,0.2-0.1C15.7,13.1,15.9,13.1,16.1,13.1z"/>
	<path fill="#FFFFFF" d="M12.1,22c-0.3-0.1-0.7-0.1-1-0.2c-1.6-0.3-2.9-1.1-4.1-2.2c-1.2-1.1-2.1-2.4-2.6-4
		c-0.4-1.3-0.5-2.6-0.3-3.9C4.2,10.3,4.7,9,5.6,7.8c1.4-2,3.3-3.2,5.8-3.7c3.9-0.7,7.7,1.1,9.5,4.6c0.2,0.4,0.4,0.9,0.6,1.3
		c0,0,0,0,0,0c-0.1-0.1-0.2-0.2-0.3-0.3c-0.8-0.7-1.7-1.4-2.7-1.8c-1.4-0.6-2.9-0.7-4.3-0.3c-1.2,0.3-2.3,0.8-3.2,1.6
		c-1.2,1-2,2.2-2.3,3.7c-0.3,1.5-0.2,3,0.3,4.5c0.5,1.4,1.4,2.5,2.7,3.4c0.6,0.4,1.2,0.7,1.9,0.9c0.1,0,0.1,0,0.2,0.1
		c-0.2,0-0.4,0.1-0.6,0.1C12.7,22,12.4,22,12.1,22z"/>
	<path fill="#FFFFFF" d="M9.5,12.4c0.1,0.1,0.1,0.2,0.2,0.2c1.3,1.4,2.8,2.6,4.4,3.6c0.9,0.6,1.9,1.1,3,1.4c0.3,0.1,0.7,0.1,1,0.1
		c0.9,0,1.4-0.5,1.4-1.4c0-0.6-0.1-1.1-0.3-1.7c-0.1-0.4-0.3-0.7-0.5-1.1c0-0.1-0.1-0.2,0-0.3c0.1-0.1,0.2,0,0.3,0.1
		c0.6,1,1.2,2.1,1.5,3.3c0.2,0.7,0.3,1.4,0.1,2.1c-0.2,0.9-0.9,1.4-1.8,1.5c-0.7,0-1.4-0.1-2-0.3c-1.4-0.4-2.6-1.1-3.8-2
		c-1.3-0.9-2.6-1.9-3.8-3c-0.1-0.1-0.1-0.1-0.1-0.2C9.1,14,9.2,13.2,9.5,12.4z"/>
	<path fill="#FFFFFF" d="M4.1,8.7C3.9,8.3,3.7,7.9,3.5,7.5C3.1,6.6,2.7,5.7,2.6,4.8C2.5,4.3,2.5,3.8,2.6,3.4C2.9,2.5,3.6,2,4.6,2
		C5.4,2,6.2,2.2,7,2.5c0.8,0.3,1.6,0.7,2.4,1.2c0,0,0.1,0.1,0.2,0.1C9.4,3.9,9.2,4,9,3.9C8.4,3.6,7.7,3.4,7.1,3.3
		c-0.3,0-0.6-0.1-0.9,0C5.5,3.3,5,3.8,5,4.6c0,0.6,0.1,1.3,0.4,1.9C5.5,6.6,5.5,6.8,5.3,7C4.9,7.5,4.5,8.1,4.1,8.7z"/>
	<path fill="#FFFFFF" d="M16.1,13.1c-0.2,0-0.4,0-0.6,0c-0.1,0-0.2,0-0.2,0.1c-0.2,0.3-0.4,0.7-0.6,1c0,0.1-0.1,0.2-0.2,0.2
		c-0.1,0-0.2-0.1-0.2-0.2c-0.1-0.3-0.3-0.6-0.4-1c0-0.1-0.1-0.2-0.3-0.3c-0.3-0.1-0.6-0.2-0.9-0.4c-0.1,0-0.2-0.1-0.2-0.2
		c0-0.1,0.1-0.2,0.2-0.2c0.3-0.2,0.6-0.4,0.9-0.7c0.1-0.1,0.1-0.1,0.1-0.3c0-0.4,0-0.7,0-1.1c0-0.1,0-0.2,0.1-0.3
		c0.1,0,0.2,0,0.3,0.1c0.3,0.2,0.6,0.4,0.9,0.6c0.1,0,0.2,0.1,0.3,0c0.4-0.1,0.7-0.2,1.1-0.3c0.3-0.1,0.4,0,0.3,0.3
		c-0.1,0.4-0.2,0.7-0.3,1.1c0,0.1,0,0.2,0,0.3c0.2,0.3,0.4,0.6,0.6,0.9c0.1,0.1,0.1,0.2,0.1,0.3c-0.1,0-0.2,0.1-0.3,0.1
		C16.5,13.1,16.3,13.1,16.1,13.1C16.1,13.1,16.1,13.1,16.1,13.1z"/>
</g>
</svg>
